<?xml version="1.0" encoding="utf-8"?>
<!-- Generator: Adobe Illustrator 24.3.0, SVG Export Plug-In . SVG Version: 6.00 Build 0)  -->
<svg version="1.1" id="Capa_1" xmlns="http://www.w3.org/2000/svg" xmlns:xlink="http://www.w3.org/1999/xlink" x="0px" y="0px"
	 viewBox="0 0 499 500" style="enable-background:new 0 0 499 500;" xml:space="preserve">
<style type="text/css">
	.st0{fill:none;stroke:#F0C803;stroke-width:5;stroke-linecap:round;stroke-linejoin:round;stroke-miterlimit:8;}
	.st1{fill-rule:evenodd;clip-rule:evenodd;fill:#F0C803;}
	.st2{fill:none;stroke:#F0C803;stroke-width:5;stroke-linecap:round;stroke-linejoin:round;stroke-miterlimit:20;}
	.st3{fill:#F0C803;}
</style>
<g>
	<g>
		<path class="st0" d="M144.9,376.3l7.4-18.4c0.9-2.2,2.6-3.9,4.7-4.8l0.5-0.2c4.2-1.8,9.1,0.2,10.9,4.4l0,0
			c1.8,4.2-0.2,9.1-4.4,10.9l-61,25.9c-4.2,1.8-9.1-0.2-10.9-4.4l0,0c-1.8-4.2,0.2-9.1,4.4-10.9l17.2-7.3c6.1-2.6,12.9-2.6,19-0.2
			L144.9,376.3z M99.2,395.8l68.7-29.2l3.2,7.6c2.7,6.3-0.3,13.6-6.6,16.3L118.7,410c-6.3,2.7-13.6-0.3-16.3-6.6L99.2,395.8z"/>
		<path class="st0" d="M115.7,339.2c-17.6,7.5-29.3,20.4-24.4,37.4c0.6,2.2,3.1,3.2,5.2,2.3l61-25.9c2.1-0.9,3.1-3.4,2-5.3
			C150.7,332.3,133.3,331.7,115.7,339.2 M103.1,362.6L103.1,362.6"/>
	</g>
	<path class="st1" d="M114,142.5c-20.1-6.5-31.2-28.1-24.6-48.3C95.9,74,117.5,63,137.7,69.5s31.2,28.1,24.6,48.3
		C155.8,138,134.2,149,114,142.5 M139.2,114.4c-2.6,8.1-11.3,12.5-19.3,9.9s-12.5-11.3-9.9-19.3L139.2,114.4z M116.4,135.2
		c16.1,5.2,33.4-3.6,38.6-19.7s-3.6-33.4-19.7-38.6s-33.4,3.6-38.6,19.7S100.3,130,116.4,135.2 M117.9,99.4c3,1,6.3-0.7,7.2-3.7
		c1-3-0.7-6.3-3.7-7.2c-3-1-6.3,0.7-7.2,3.7C113.2,95.2,114.9,98.4,117.9,99.4 M136.1,105.3c3,1,6.3-0.7,7.2-3.7
		c1-3-0.7-6.3-3.7-7.2l0,0c-3-1-6.3,0.7-7.2,3.7C131.5,101.1,133.1,104.3,136.1,105.3"/>
	<g>
		<path class="st2" d="M275.1,278.1l-48-8.2l-3.5-46.2l70.1,12L275.1,278.1z M287.7,204.3l8.9,3.4l-10.3,26.7l-11.1-1.9L287.7,204.3
			z M269.3,201.2l-11.1-1.9l-5.1,29.5l11.1,1.9L269.3,201.2z M282.3,192l-11.1-1.9l-7,40.6l11.1,1.9L282.3,192z M239.8,196.1
			l-9.5,0.3L231,225l11.1,1.9L239.8,196.1z M260.1,188.2l-11.1-1.9l-7,40.6l11.1,1.9L260.1,188.2z"/>
		<path class="st2" d="M262.9,260.8l-18.4-3.2l-4.3-8.3l6.8-6.4l18.4,3.2l4.3,8.3L262.9,260.8z"/>
	</g>
	<path class="st3" d="M384.9,328.6l-35.5,27.6c-1.4,1.1-1.6,3-0.5,4.4c0.4,0.5,0.9,0.8,1.5,1l20.1,6.7l-13.9,24.3
		c-1.7,3,1.9,6.1,4.6,4l35.5-27.6c1.4-1.1,1.6-3,0.5-4.4c-0.4-0.5-0.9-0.8-1.5-1l-20.1-6.7l13.9-24.3
		C391.3,329.6,387.6,326.6,384.9,328.6"/>
	<g>
		<path class="st0" d="M395.8,114.6l14-11.3c1.6-1.3,3.7-1.9,5.8-1.7l0.5,0c4.1,0.4,7.1,4.1,6.7,8.3l0,0c-0.4,4.1-4.1,7.1-8.3,6.7
			l-59.7-6.4c-4.1-0.4-7.1-4.1-6.7-8.3l0,0c0.4-4.1,4.1-7.1,8.3-6.7l16.9,1.8c5.9,0.6,11.4,3.6,15.1,8.3L395.8,114.6z M351,109.7
			l67.2,7.2l-0.8,7.5c-0.7,6.2-6.2,10.7-12.4,10l-44.8-4.8c-6.2-0.7-10.7-6.2-10-12.4L351,109.7z"/>
		<path class="st0" d="M389,72.3c-17.3-1.9-32.2,3.2-35.8,18.8c-0.5,2,1.1,3.9,3.1,4.1l59.7,6.4c2.1,0.2,3.9-1.3,3.9-3.4
			C419.7,82.2,406.2,74.1,389,72.3 M368.7,85.2L368.7,85.2"/>
	</g>
</g>
</svg>
